<svg xmlns="http://www.w3.org/2000/svg" width="100" height="100"><path fill-rule="evenodd" d="M4817.1 4979.5c-85.8-36.8-175.6-118.4-220.5-202.2-32.7-57.2-34.7-377.8-40.8-4053.6l-4.1-3992.4-1417.3 1417.3C2356.3-1073.3 1709-438.2 1700.8-442.3c-51-22.5-500.3-512.6-494.2-539.1 8.2-36.7 3773.9-3808.6 3804.5-3808.6 10.2 0 870 849.5 1907.4 1886.9C8576.6-1244.9 8803.3-1010 8793.1-969.2c-8.2 26.5-122.5 159.3-257.3 292l-245.1 243-1456-1441.7-1456-1441.7-10.2 4031.2-10.2 4029.1-61.3 87.8c-112.3 159.2-312.4 222.5-479.9 149z"/></svg>